<svg width="16" height="16" viewBox="0 0 16 16" fill="none" xmlns="http://www.w3.org/2000/svg">
<g clip-path="url(#clip0_418_846)">
<path d="M3.80146 12.104C3.57612 12.104 3.40712 12.026 3.29446 11.87C3.19046 11.714 3.16012 11.506 3.20346 11.246L3.91846 6.761H3.30746C3.12546 6.761 2.98246 6.722 2.87846 6.644C2.78312 6.566 2.73546 6.45767 2.73546 6.319C2.73546 6.111 2.79612 5.95067 2.91746 5.838C3.03879 5.71667 3.20346 5.656 3.41146 5.656H4.25646L4.06146 5.812L4.13946 5.292C4.26079 4.55533 4.55112 3.97467 5.01046 3.55C5.46979 3.12533 6.13712 2.88267 7.01246 2.822L7.41546 2.796C7.58012 2.78733 7.70579 2.81767 7.79246 2.887C7.87912 2.95633 7.93546 3.043 7.96146 3.147C7.98746 3.251 7.98746 3.35933 7.96146 3.472C7.93546 3.58467 7.88346 3.68 7.80546 3.758C7.73612 3.836 7.64079 3.87933 7.51946 3.888L7.15546 3.914C6.68746 3.94867 6.33212 4.07867 6.08946 4.304C5.84679 4.52067 5.68646 4.84567 5.60846 5.279L5.53046 5.773L5.42646 5.656H6.67446C6.86512 5.656 7.00812 5.695 7.10346 5.773C7.19879 5.84233 7.24646 5.94633 7.24646 6.085C7.24646 6.30167 7.18579 6.47067 7.06446 6.592C6.94312 6.70467 6.77846 6.761 6.57046 6.761H5.38746L4.65946 11.376C4.57279 11.8613 4.28679 12.104 3.80146 12.104ZM7.46604 12.104C7.27537 12.104 7.1237 12.052 7.01104 11.948C6.89837 11.844 6.84204 11.7183 6.84204 11.571C6.8507 11.415 6.92004 11.2677 7.05004 11.129L9.62404 8.438L9.61104 9.075L7.98604 6.566C7.87337 6.37533 7.8257 6.20633 7.84304 6.059C7.86037 5.91167 7.92537 5.79033 8.03804 5.695C8.15937 5.59967 8.30237 5.552 8.46704 5.552C8.62304 5.552 8.76604 5.591 8.89604 5.669C9.02604 5.73833 9.14304 5.85533 9.24704 6.02L10.534 8.048H10.131L12.042 5.942C12.1634 5.812 12.2804 5.71667 12.393 5.656C12.5057 5.58667 12.6487 5.552 12.822 5.552C13.0214 5.552 13.173 5.604 13.277 5.708C13.3897 5.812 13.4417 5.93767 13.433 6.085C13.433 6.23233 13.368 6.37533 13.238 6.514L10.833 9.062V8.399L12.588 11.077C12.7094 11.2503 12.757 11.4193 12.731 11.584C12.7137 11.74 12.6444 11.8657 12.523 11.961C12.4104 12.0563 12.2674 12.104 12.094 12.104C11.9467 12.104 11.8037 12.065 11.665 11.987C11.535 11.9003 11.4224 11.7833 11.327 11.636L9.92304 9.439L10.391 9.452L8.23304 11.714C8.1117 11.8353 7.9947 11.9307 7.88204 12C7.77804 12.0693 7.63937 12.104 7.46604 12.104Z" fill="#C6C6C6"/>
<rect x="0.75" y="0.75" width="14.5" height="14.5" rx="2.25" stroke="#C6C6C6" stroke-width="1.5"/>
</g>
<defs>
<clipPath id="clip0_418_846">
<rect width="16" height="16" fill="white"/>
</clipPath>
</defs>
</svg>
