<svg width="16" height="16" viewBox="0 0 16 16" fill="none" xmlns="http://www.w3.org/2000/svg">
<g clip-path="url(#clip0_328_246)">
<path d="M0.75 13V3C0.75 2.49392 1.01059 1.92507 1.46783 1.46783C1.92507 1.01059 2.49392 0.75 3 0.75H11C11.5266 0.75 11.7741 0.756938 12.0128 0.836512C12.2323 0.909673 12.5101 1.07076 12.9697 1.53033L14.4697 3.03033C15.2365 3.79715 15.25 4.51114 15.25 5.5V13C15.25 13.5061 14.9894 14.0749 14.5322 14.5322C14.0749 14.9894 13.5061 15.25 13 15.25H3C2.49392 15.25 1.92507 14.9894 1.46783 14.5322C1.01059 14.0749 0.75 13.5061 0.75 13Z" stroke="#C6C6C6" stroke-width="1.5"/>
<path d="M11.75 1V4C11.75 4.55228 11.3023 5 10.75 5H9H5.25C4.69772 5 4.25 4.55228 4.25 4V1" stroke="#C6C6C6" stroke-width="1.5" stroke-linejoin="round"/>
<path d="M8.75 5V1" stroke="#C6C6C6" stroke-width="1.5"/>
<path d="M11.75 15V10.5C11.75 9.94772 11.3023 9.5 10.75 9.5H5.25C4.69772 9.5 4.25 9.94772 4.25 10.5V15" stroke="#C6C6C6" stroke-width="1.5" stroke-linejoin="round"/>
</g>
<defs>
<clipPath id="clip0_328_246">
<rect width="16" height="16" fill="white"/>
</clipPath>
</defs>
</svg>
