<svg width="16" height="16" viewBox="0 0 16 16" fill="none" xmlns="http://www.w3.org/2000/svg">
<g clip-path="url(#clip0_356_379)">
<rect x="0.75" y="0.75" width="14.5" height="14.5" rx="2.25" stroke="#C6C6C6" stroke-width="1.5"/>
<path d="M9.45451 12.13C8.90851 12.13 8.45351 12.0347 8.08951 11.844C7.72551 11.6533 7.45251 11.3803 7.27051 11.025C7.09718 10.661 7.01051 10.2147 7.01051 9.686V6.761H6.28251C6.09185 6.761 5.94451 6.71333 5.84051 6.618C5.73651 6.52267 5.68451 6.38833 5.68451 6.215C5.68451 6.033 5.73651 5.89433 5.84051 5.799C5.94451 5.70367 6.09185 5.656 6.28251 5.656H7.01051V4.382C7.01051 4.13933 7.07551 3.95733 7.20551 3.836C7.33551 3.706 7.51751 3.641 7.75151 3.641C7.98551 3.641 8.16318 3.706 8.28451 3.836C8.41451 3.95733 8.47951 4.13933 8.47951 4.382V5.656H9.93551C10.1262 5.656 10.2692 5.70367 10.3645 5.799C10.4685 5.89433 10.5205 6.033 10.5205 6.215C10.5205 6.38833 10.4685 6.52267 10.3645 6.618C10.2692 6.71333 10.1262 6.761 9.93551 6.761H8.47951V9.582C8.47951 10.024 8.57485 10.3577 8.76551 10.583C8.95618 10.7997 9.26385 10.908 9.68851 10.908C9.83585 10.908 9.96585 10.895 10.0785 10.869C10.1912 10.843 10.2908 10.8257 10.3775 10.817C10.4728 10.8083 10.5508 10.8387 10.6115 10.908C10.6808 10.9773 10.7155 11.1117 10.7155 11.311C10.7155 11.467 10.6895 11.6057 10.6375 11.727C10.5855 11.8483 10.4945 11.935 10.3645 11.987C10.2518 12.0217 10.1045 12.052 9.92251 12.078C9.74918 12.1127 9.59318 12.13 9.45451 12.13Z" fill="#C6C6C6"/>
</g>
<defs>
<clipPath id="clip0_356_379">
<rect width="16" height="16" fill="white"/>
</clipPath>
</defs>
</svg>
