<svg width="16" height="16" viewBox="0 0 16 16" fill="none" xmlns="http://www.w3.org/2000/svg">
<path d="M1.25 5.7V10.3C1.25 10.4105 1.33954 10.5 1.45 10.5H3.18333C3.22661 10.5 3.26871 10.514 3.30333 10.54L6.93 13.26C7.06185 13.3589 7.25 13.2648 7.25 13.1V2.9C7.25 2.73519 7.06185 2.64111 6.93 2.74L3.30333 5.46C3.26871 5.48596 3.22661 5.5 3.18333 5.5H1.45C1.33954 5.5 1.25 5.58954 1.25 5.7Z" stroke="#C6C6C6" stroke-width="1.5" stroke-linejoin="round"/>
<path d="M10 5.5C10.6072 6.07014 11 6.97775 11 8C11 9.02225 10.6072 9.92986 10 10.5" stroke="#C6C6C6" stroke-width="1.5" stroke-linecap="round" stroke-linejoin="round"/>
<path d="M12 3C13.2145 4.14029 14 5.9555 14 8C14 10.0445 13.2145 11.8597 12 13" stroke="#C6C6C6" stroke-width="1.5" stroke-linecap="round" stroke-linejoin="round"/>
</svg>
