<svg width="8" height="8" viewBox="0 0 8 8" fill="none" xmlns="http://www.w3.org/2000/svg">
<path fill-rule="evenodd" clip-rule="evenodd" d="M7.85168 0.853417C8.04691 0.658187 8.04691 0.341657 7.85168 0.146427C7.65645 -0.0488026 7.33992 -0.048803 7.14469 0.146427L3.99881 3.29233L0.854921 0.147745C0.659668 -0.0475521 0.343099 -0.0475521 0.147846 0.147745C-0.0474073 0.343042 -0.0474076 0.65968 0.147846 0.854977L3.29165 3.99949L0.146417 7.14475C-0.0488114 7.33998 -0.0488113 7.65651 0.146417 7.85174C0.341646 8.04696 0.658174 8.04696 0.853402 7.85174L3.99856 4.70656L7.14568 7.85437C7.34093 8.04967 7.6575 8.04967 7.85275 7.85437C8.04801 7.65908 8.04801 7.34244 7.85275 7.14714L4.70571 3.9994L7.85168 0.853417Z" fill="#C6C6C6"/>
</svg>
